M48
;Layer_Color=9474304
;FILE_FORMAT=2:5
INCH,TZ
;TYPE=PLATED
T1F00S00C0.02362
T2F00S00C0.02756
T3F00S00C0.03346
T4F00S00C0.03504
T5F00S00C0.03543
T6F00S00C0.03937
T7F00S00C0.04000
T8F00S00C0.04528
T9F00S00C0.04724
T10F00S00C0.04724
T11F00S00C0.05315
T12F00S00C0.05906
T13F00S00C0.06693
;TYPE=NON_PLATED
T14F00S00C0.10630
%
T01
X155000Y126000
Y143000
X178622
Y126000
T02
X71898Y29528
X81898
X153669Y86614
X173354
X229000Y146221
X307000Y31000
Y17221
X229000Y160000
T03
X61898Y13780
X91898
X89457Y92520
Y108268
X119457
Y92520
Y147638
X89457
Y163386
X119457
T04
X240283Y15748
X254063
X267843
X260953Y31496
X247173
T05
X165000Y157000
X175000
Y187000
X165000
X155000
X145000
Y157000
X155000
T06
X59000Y57000
Y67000
Y77000
Y142000
Y152000
Y162000
T07
X165480Y210630
X175480
X155480
X145480
T08
X216661Y196850
X242252
T09
X153669Y21654
X173354
X106425Y198819
X86740
T10
X83866Y74803
X125047
Y129921
X83866
X196976Y154606
Y195787
T11
X280000Y126000
X333150
T12
X116268Y11024
Y29528
Y48031
T13
X212000Y31913
Y106087
T14
X23622Y13780
X330709
Y206693
X23622
M30
