G04*
G04 #@! TF.GenerationSoftware,Altium Limited,Altium Designer,20.0.13 (296)*
G04*
G04 Layer_Color=16711935*
%FSLAX25Y25*%
%MOIN*%
G70*
G01*
G75*
%ADD19C,0.06800*%
%ADD20C,0.08674*%
%ADD21C,0.06312*%
%ADD22C,0.07099*%
%ADD23R,0.07099X0.07099*%
%ADD24O,0.05800X0.07800*%
%ADD25C,0.07296*%
%ADD26C,0.08083*%
%ADD27C,0.07493*%
%ADD28R,0.06706X0.06706*%
%ADD29C,0.06706*%
%ADD30R,0.11824X0.11824*%
%ADD31C,0.11824*%
%ADD32R,0.08674X0.08674*%
%ADD33R,0.08674X0.08674*%
%ADD34C,0.05524*%
D19*
X267843Y15748D02*
D03*
X260953Y31496D02*
D03*
X254063Y15748D02*
D03*
X247173Y31496D02*
D03*
X240283Y15748D02*
D03*
X330709Y13780D02*
D03*
Y206693D02*
D03*
X23622D02*
D03*
Y13780D02*
D03*
D20*
X116268Y48031D02*
D03*
Y29528D02*
D03*
Y11024D02*
D03*
X83866Y129921D02*
D03*
X196976Y195787D02*
D03*
X83866Y74803D02*
D03*
D21*
X89457Y147638D02*
D03*
X119457D02*
D03*
X89457Y163386D02*
D03*
X119457D02*
D03*
X89457Y108268D02*
D03*
X119457D02*
D03*
X89457Y92520D02*
D03*
X119457D02*
D03*
X91898Y13780D02*
D03*
X61898D02*
D03*
D22*
X59000Y162000D02*
D03*
Y152000D02*
D03*
Y77000D02*
D03*
Y67000D02*
D03*
D23*
Y142000D02*
D03*
Y57000D02*
D03*
D24*
X155480Y210630D02*
D03*
X165480D02*
D03*
X175480D02*
D03*
X145480D02*
D03*
D25*
X242252Y196850D02*
D03*
X216661D02*
D03*
D26*
X280000Y126000D02*
D03*
X333150D02*
D03*
D27*
X86740Y198819D02*
D03*
X106425D02*
D03*
X173354Y21654D02*
D03*
X153669D02*
D03*
D28*
X175000Y187000D02*
D03*
D29*
X165000D02*
D03*
X155000D02*
D03*
X145000D02*
D03*
X175000Y157000D02*
D03*
X165000D02*
D03*
X155000D02*
D03*
X145000D02*
D03*
D30*
X212000Y106087D02*
D03*
D31*
Y31913D02*
D03*
D32*
X125047Y129921D02*
D03*
Y74803D02*
D03*
D33*
X196976Y154606D02*
D03*
D34*
X71898Y29528D02*
D03*
X81898D02*
D03*
X178622Y143000D02*
D03*
X155000D02*
D03*
X178622Y126000D02*
D03*
X155000D02*
D03*
X229000Y146221D02*
D03*
Y160000D02*
D03*
X307000Y31000D02*
D03*
Y17221D02*
D03*
X153669Y86614D02*
D03*
X173354D02*
D03*
M02*
