M48
;Layer_Color=9474304
;FILE_FORMAT=2:5
INCH,TZ
;TYPE=PLATED
T1F00S00C0.02362
T2F00S00C0.02756
T3F00S00C0.03150
T4F00S00C0.03150
T5F00S00C0.03346
T6F00S00C0.03504
T7F00S00C0.03543
T8F00S00C0.03937
T9F00S00C0.04000
T10F00S00C0.04528
T11F00S00C0.04724
T12F00S00C0.05315
T13F00S00C0.06693
;TYPE=NON_PLATED
T14F00S00C0.10630
%
T01
X147000Y126000
Y143000
X170622
Y126000
T02
X63898Y29528
X73898
X145669Y86614
X165354
X221000Y146221
X299000Y31000
Y17221
X221000Y160000
T03
X108268Y11024
Y29528
Y48031
T04
X145669Y21654
X165354
X98425Y198819
X78740
T05
X53898Y13780
X83898
X81457Y92520
Y108268
X111457
Y92520
Y147638
X81457
Y163386
X111457
T06
X232283Y15748
X246063
X259842
X252953Y31496
X239173
T07
X157000Y157000
X167000
Y187000
X157000
X147000
X137000
Y157000
X147000
T08
X51000Y57000
Y67000
Y77000
Y142000
Y152000
Y162000
T09
X157480Y210630
X167480
X147480
X137480
T10
X208661Y196850
X234252
T11
X75866Y74803
X117047
Y129921
X75866
X188976Y154606
Y195787
T12
X280000Y126000
X333150
T13
X204724Y31811
Y105984
T14
X23622Y13780
X330709
Y206693
X23622
M30
