G04*
G04 #@! TF.GenerationSoftware,Altium Limited,Altium Designer,20.0.13 (296)*
G04*
G04 Layer_Color=65535*
%FSLAX25Y25*%
%MOIN*%
G70*
G01*
G75*
%ADD10C,0.00984*%
%ADD11C,0.00787*%
%ADD12C,0.02362*%
%ADD13C,0.01000*%
%ADD14C,0.00800*%
%ADD15R,0.22047X0.03150*%
%ADD16R,0.03150X0.11024*%
%ADD17R,0.11024X0.03150*%
D10*
X64217Y133496D02*
X63478Y133922D01*
Y133070D01*
X64217Y133496D01*
Y48496D02*
X63478Y48922D01*
Y48070D01*
X64217Y48496D01*
X180610Y187000D02*
X179872Y187426D01*
Y186574D01*
X180610Y187000D01*
D11*
X247173Y196850D02*
X247145Y197853D01*
X247060Y198852D01*
X246918Y199845D01*
X246721Y200828D01*
X246468Y201798D01*
X246161Y202752D01*
X245801Y203688D01*
X245388Y204602D01*
X244923Y205491D01*
X244410Y206352D01*
X243848Y207183D01*
X243241Y207980D01*
X242589Y208742D01*
X241895Y209466D01*
X241162Y210150D01*
X240390Y210791D01*
X239584Y211387D01*
X238746Y211936D01*
X237877Y212438D01*
X236982Y212889D01*
X236062Y213289D01*
X235122Y213637D01*
X234163Y213930D01*
X233189Y214169D01*
X232203Y214353D01*
X231209Y214480D01*
X230209Y214551D01*
X229206Y214565D01*
X228204Y214523D01*
X227206Y214423D01*
X226216Y214268D01*
X225236Y214057D01*
X224269Y213790D01*
X223319Y213470D01*
X222388Y213096D01*
X221481Y212670D01*
X220598Y212193D01*
X219745Y211668D01*
X218922Y211094D01*
X218133Y210476D01*
X217380Y209813D01*
X216666Y209109D01*
X215993Y208366D01*
X215363Y207586D01*
X214778Y206771D01*
X214241Y205925D01*
X213752Y205049D01*
X213313Y204148D01*
X212926Y203223D01*
X212592Y202277D01*
X212312Y201315D01*
X212087Y200338D01*
X211917Y199349D01*
X211804Y198353D01*
X211747Y197352D01*
X211747Y196349D01*
X211804Y195348D01*
X211917Y194352D01*
X212087Y193363D01*
X212312Y192386D01*
X212592Y191423D01*
X212926Y190478D01*
X213313Y189553D01*
X213752Y188651D01*
X214241Y187776D01*
X214778Y186930D01*
X215363Y186115D01*
X215993Y185335D01*
X216666Y184592D01*
X217380Y183888D01*
X218133Y183225D01*
X218922Y182606D01*
X219744Y182033D01*
X220598Y181507D01*
X221481Y181031D01*
X222388Y180605D01*
X223319Y180231D01*
X224269Y179910D01*
X225236Y179644D01*
X226216Y179433D01*
X227206Y179277D01*
X228204Y179178D01*
X229206Y179136D01*
X230209Y179150D01*
X231209Y179221D01*
X232203Y179348D01*
X233189Y179532D01*
X234163Y179770D01*
X235122Y180064D01*
X236062Y180411D01*
X236982Y180812D01*
X237877Y181263D01*
X238746Y181764D01*
X239584Y182314D01*
X240390Y182910D01*
X241162Y183551D01*
X241895Y184235D01*
X242589Y184959D01*
X243241Y185721D01*
X243848Y186518D01*
X244410Y187349D01*
X244923Y188210D01*
X245388Y189099D01*
X245801Y190013D01*
X246161Y190948D01*
X246468Y191903D01*
X246721Y192873D01*
X246918Y193856D01*
X247060Y194849D01*
X247145Y195848D01*
X247173Y196850D01*
X180276Y174500D02*
X179319Y174310D01*
X178508Y173768D01*
X177966Y172957D01*
X177776Y172000D01*
X177966Y171043D01*
X178508Y170232D01*
X179319Y169690D01*
X180276Y169500D01*
X244748Y153110D02*
X244716Y154109D01*
X244621Y155104D01*
X244463Y156091D01*
X244243Y157065D01*
X243962Y158024D01*
X243620Y158963D01*
X243219Y159879D01*
X242761Y160767D01*
X242248Y161624D01*
X241681Y162447D01*
X241064Y163233D01*
X240397Y163978D01*
X239685Y164679D01*
X238930Y165333D01*
X238135Y165938D01*
X237303Y166492D01*
X236437Y166991D01*
X235542Y167435D01*
X234620Y167821D01*
X233676Y168148D01*
X232713Y168414D01*
X231735Y168619D01*
X230746Y168761D01*
X229749Y168840D01*
X228750Y168856D01*
X227752Y168809D01*
X226759Y168698D01*
X225775Y168524D01*
X224804Y168289D01*
X223849Y167992D01*
X222916Y167636D01*
X222007Y167220D01*
X221126Y166748D01*
X220277Y166222D01*
X219463Y165642D01*
X218687Y165012D01*
X217953Y164334D01*
X217264Y163610D01*
X216621Y162845D01*
X216029Y162040D01*
X215489Y161200D01*
X215003Y160326D01*
X214573Y159424D01*
X214202Y158496D01*
X213890Y157547D01*
X213639Y156580D01*
X213450Y155598D01*
X213323Y154607D01*
X213260Y153610D01*
Y152611D01*
X213323Y151613D01*
X213450Y150622D01*
X213639Y149641D01*
X213890Y148673D01*
X214202Y147724D01*
X214573Y146796D01*
X215003Y145894D01*
X215489Y145021D01*
X216029Y144180D01*
X216621Y143375D01*
X217264Y142610D01*
X217953Y141887D01*
X218687Y141209D01*
X219463Y140578D01*
X220277Y139999D01*
X221126Y139472D01*
X222007Y139000D01*
X222916Y138585D01*
X223849Y138228D01*
X224804Y137932D01*
X225775Y137696D01*
X226759Y137522D01*
X227752Y137412D01*
X228750Y137364D01*
X229749Y137380D01*
X230746Y137459D01*
X231735Y137601D01*
X232713Y137806D01*
X233676Y138072D01*
X234620Y138399D01*
X235542Y138785D01*
X236437Y139229D01*
X237303Y139729D01*
X238135Y140282D01*
X238930Y140887D01*
X239685Y141542D01*
X240397Y142243D01*
X241064Y142988D01*
X241681Y143773D01*
X242248Y144596D01*
X242761Y145454D01*
X243219Y146342D01*
X243620Y147257D01*
X243962Y148196D01*
X244243Y149155D01*
X244463Y150130D01*
X244621Y151117D01*
X244716Y152111D01*
X244748Y153110D01*
X322748Y24110D02*
X322716Y25109D01*
X322621Y26104D01*
X322463Y27091D01*
X322243Y28065D01*
X321962Y29024D01*
X321620Y29963D01*
X321219Y30879D01*
X320761Y31767D01*
X320248Y32624D01*
X319681Y33447D01*
X319064Y34233D01*
X318397Y34978D01*
X317685Y35679D01*
X316930Y36333D01*
X316135Y36938D01*
X315303Y37492D01*
X314437Y37991D01*
X313542Y38435D01*
X312620Y38821D01*
X311676Y39148D01*
X310713Y39414D01*
X309735Y39619D01*
X308746Y39761D01*
X307749Y39840D01*
X306750Y39856D01*
X305752Y39809D01*
X304759Y39698D01*
X303775Y39524D01*
X302804Y39289D01*
X301849Y38992D01*
X300916Y38636D01*
X300007Y38220D01*
X299126Y37748D01*
X298277Y37222D01*
X297463Y36642D01*
X296687Y36012D01*
X295953Y35334D01*
X295264Y34611D01*
X294621Y33845D01*
X294029Y33040D01*
X293489Y32200D01*
X293003Y31326D01*
X292573Y30424D01*
X292202Y29496D01*
X291890Y28547D01*
X291639Y27580D01*
X291450Y26599D01*
X291323Y25607D01*
X291260Y24610D01*
Y23611D01*
X291323Y22613D01*
X291450Y21622D01*
X291639Y20641D01*
X291890Y19673D01*
X292202Y18724D01*
X292573Y17796D01*
X293003Y16894D01*
X293489Y16021D01*
X294029Y15180D01*
X294621Y14375D01*
X295264Y13610D01*
X295953Y12887D01*
X296687Y12209D01*
X297463Y11579D01*
X298277Y10999D01*
X299126Y10472D01*
X300007Y10000D01*
X300916Y9585D01*
X301849Y9228D01*
X302804Y8932D01*
X303775Y8696D01*
X304759Y8523D01*
X305752Y8412D01*
X306750Y8364D01*
X307749Y8380D01*
X308746Y8459D01*
X309735Y8601D01*
X310713Y8806D01*
X311676Y9072D01*
X312620Y9399D01*
X313542Y9785D01*
X314437Y10229D01*
X315303Y10729D01*
X316135Y11282D01*
X316930Y11887D01*
X317685Y12542D01*
X318397Y13243D01*
X319064Y13988D01*
X319681Y14773D01*
X320248Y15596D01*
X320761Y16454D01*
X321219Y17342D01*
X321620Y18257D01*
X321962Y19196D01*
X322243Y20155D01*
X322463Y21130D01*
X322621Y22117D01*
X322716Y23111D01*
X322748Y24110D01*
X188118Y86614D02*
X188098Y87611D01*
X188037Y88607D01*
X187936Y89599D01*
X187795Y90587D01*
X187614Y91567D01*
X187394Y92540D01*
X187134Y93503D01*
X186836Y94455D01*
X186499Y95394D01*
X186124Y96318D01*
X185712Y97226D01*
X185264Y98117D01*
X184780Y98989D01*
X184261Y99841D01*
X183708Y100671D01*
X183122Y101478D01*
X182503Y102260D01*
X181853Y103017D01*
X181174Y103747D01*
X180465Y104449D01*
X179728Y105121D01*
X178965Y105763D01*
X178176Y106374D01*
X177363Y106951D01*
X176528Y107496D01*
X175671Y108007D01*
X174794Y108482D01*
X173898Y108921D01*
X172986Y109324D01*
X172058Y109689D01*
X171116Y110016D01*
X170161Y110305D01*
X169195Y110555D01*
X168220Y110766D01*
X167238Y110937D01*
X166249Y111068D01*
X165256Y111159D01*
X164260Y111209D01*
X163262Y111219D01*
X162266Y111189D01*
X161271Y111118D01*
X160279Y111007D01*
X159294Y110856D01*
X158315Y110665D01*
X157344Y110435D01*
X156384Y110166D01*
X155435Y109857D01*
X154500Y109511D01*
X153579Y109127D01*
X152675Y108706D01*
X151789Y108248D01*
X150922Y107756D01*
X150075Y107228D01*
X149251Y106667D01*
X148450Y106072D01*
X147674Y105446D01*
X146924Y104789D01*
X146201Y104101D01*
X145507Y103385D01*
X144842Y102642D01*
X144207Y101872D01*
X143605Y101077D01*
X143035Y100259D01*
X142499Y99418D01*
X141997Y98556D01*
X141531Y97674D01*
X141101Y96774D01*
X140708Y95858D01*
X140352Y94926D01*
X140034Y93980D01*
X139755Y93023D01*
X139515Y92055D01*
X139314Y91078D01*
X139153Y90093D01*
X139032Y89104D01*
X138951Y88109D01*
X138911Y87113D01*
Y86115D01*
X138951Y85119D01*
X139032Y84125D01*
X139153Y83135D01*
X139314Y82150D01*
X139515Y81173D01*
X139755Y80205D01*
X140034Y79248D01*
X140352Y78303D01*
X140708Y77371D01*
X141101Y76454D01*
X141531Y75554D01*
X141997Y74673D01*
X142499Y73811D01*
X143035Y72970D01*
X143605Y72151D01*
X144207Y71356D01*
X144842Y70586D01*
X145507Y69843D01*
X146201Y69127D01*
X146924Y68440D01*
X147674Y67782D01*
X148450Y67156D01*
X149251Y66562D01*
X150075Y66000D01*
X150922Y65473D01*
X151789Y64980D01*
X152675Y64522D01*
X153580Y64101D01*
X154500Y63718D01*
X155435Y63371D01*
X156384Y63063D01*
X157344Y62793D01*
X158315Y62563D01*
X159294Y62372D01*
X160280Y62221D01*
X161271Y62110D01*
X162266Y62039D01*
X163262Y62009D01*
X164260Y62019D01*
X165256Y62070D01*
X166249Y62161D01*
X167238Y62292D01*
X168221Y62463D01*
X169195Y62673D01*
X170161Y62923D01*
X171116Y63212D01*
X172058Y63540D01*
X172986Y63905D01*
X173898Y64307D01*
X174794Y64747D01*
X175671Y65222D01*
X176528Y65732D01*
X177363Y66277D01*
X178176Y66855D01*
X178965Y67465D01*
X179728Y68107D01*
X180465Y68780D01*
X181174Y69481D01*
X181853Y70211D01*
X182503Y70968D01*
X183122Y71750D01*
X183708Y72557D01*
X184261Y73387D01*
X184780Y74239D01*
X185264Y75111D01*
X185712Y76002D01*
X186124Y76911D01*
X186499Y77835D01*
X186836Y78774D01*
X187134Y79725D01*
X187394Y80688D01*
X187614Y81661D01*
X187795Y82642D01*
X187936Y83629D01*
X188037Y84621D01*
X188098Y85617D01*
X188118Y86614D01*
X94457Y144638D02*
Y147638D01*
Y144638D02*
X114457D01*
Y150638D01*
X94457D02*
X114457D01*
X94457Y147638D02*
Y150638D01*
X114457Y147638D02*
X115357D01*
X93557D02*
X94457D01*
Y160386D02*
Y163386D01*
Y160386D02*
X114457D01*
Y166386D01*
X94457D02*
X114457D01*
X94457Y163386D02*
Y166386D01*
X114457Y163386D02*
X115357D01*
X93557D02*
X94457D01*
Y105268D02*
Y108268D01*
Y105268D02*
X114457D01*
Y111268D01*
X94457D02*
X114457D01*
X94457Y108268D02*
Y111268D01*
X114457Y108268D02*
X115357D01*
X93557D02*
X94457D01*
Y89520D02*
Y92520D01*
Y89520D02*
X114457D01*
Y95520D01*
X94457D02*
X114457D01*
X94457Y92520D02*
Y95520D01*
X114457Y92520D02*
X115357D01*
X93557D02*
X94457D01*
X86898Y13780D02*
Y16780D01*
X66898D02*
X86898D01*
X66898Y10780D02*
Y16780D01*
Y10780D02*
X86898D01*
Y13780D01*
X65998D02*
X66898D01*
X86898D02*
X87798D01*
X47780Y173063D02*
X66284D01*
X47780Y130937D02*
X66284D01*
Y173063D01*
X47780Y130937D02*
Y173063D01*
X49748Y130937D02*
Y173063D01*
X47780Y88063D02*
X66284D01*
X47780Y45937D02*
X66284D01*
Y88063D01*
X47780Y45937D02*
Y88063D01*
X49748Y45937D02*
Y88063D01*
X139724Y182433D02*
X180276D01*
X139724Y161567D02*
X180276D01*
Y174500D02*
Y182433D01*
Y161567D02*
Y169500D01*
X139724Y161567D02*
Y182433D01*
X200976Y50102D02*
X223024D01*
X200976D02*
Y87898D01*
X223024Y50102D02*
Y87898D01*
X94024Y124409D02*
Y135433D01*
X114890D01*
X94024Y124409D02*
X114890D01*
X191465Y185630D02*
X202488D01*
Y164764D02*
Y185630D01*
X191465Y164764D02*
Y185630D01*
X94024Y69291D02*
Y80315D01*
X114890D01*
X94024Y69291D02*
X114890D01*
X66898Y34528D02*
X86898D01*
X66898Y24528D02*
Y34528D01*
Y24528D02*
X86898D01*
Y34528D01*
X159724Y143000D02*
X169862D01*
X163760D02*
X173898D01*
X169862Y136110D02*
Y143000D01*
X163760Y136110D02*
X169862D01*
X163760D02*
Y149890D01*
X169862D01*
Y143000D02*
Y149890D01*
X159724Y126000D02*
X169862D01*
X163760D02*
X173898D01*
X169862Y119110D02*
Y126000D01*
X163760Y119110D02*
X169862D01*
X163760D02*
Y132890D01*
X169862D01*
Y126000D02*
Y132890D01*
X226969Y172795D02*
X230968D01*
X229000Y170795D02*
Y174795D01*
X307000Y41795D02*
Y45795D01*
X304969Y43795D02*
X308968D01*
X133000Y86614D02*
X137000D01*
X134968Y84614D02*
Y88614D01*
D12*
X177520Y178496D02*
X177075Y179420D01*
X176076Y179648D01*
X175275Y179008D01*
Y177984D01*
X176076Y177345D01*
X177075Y177573D01*
X177520Y178496D01*
D13*
X234378Y37402D02*
X273748D01*
Y9843D02*
Y37402D01*
X234378Y9843D02*
X273748D01*
X234378D02*
Y37402D01*
X129260Y4331D02*
Y54331D01*
X103276D02*
X129260D01*
X103276Y7874D02*
Y54331D01*
X106819Y4331D02*
X129260D01*
X103276Y7874D02*
X106819Y4331D01*
X274095Y62024D02*
Y189976D01*
X339055Y62024D02*
Y189976D01*
X274095D02*
X339055D01*
X274095Y62024D02*
X339055D01*
X76898Y181102D02*
Y216535D01*
X116268D01*
X76898Y181102D02*
X112331D01*
X116268Y185039D01*
Y216535D01*
X183197Y3937D02*
Y39370D01*
X143827Y3937D02*
X183197D01*
X147764Y39370D02*
X183197D01*
X143827Y35433D02*
X147764Y39370D01*
X143827Y3937D02*
Y35433D01*
X232999Y86998D02*
X227001D01*
Y83999D01*
X228001Y83000D01*
X231999D01*
X232999Y83999D01*
Y86998D01*
Y77002D02*
Y81000D01*
X230000D01*
X231000Y79001D01*
Y78001D01*
X230000Y77002D01*
X228001D01*
X227001Y78001D01*
Y80001D01*
X228001Y81000D01*
X107738Y62790D02*
X106738Y63789D01*
X104739D01*
X103739Y62790D01*
Y61790D01*
X104739Y60790D01*
X106738D01*
X107738Y59791D01*
Y58791D01*
X106738Y57791D01*
X104739D01*
X103739Y58791D01*
X109737Y57791D02*
X111737D01*
X110737D01*
Y63789D01*
X109737Y62790D01*
X109362Y178196D02*
X107363D01*
X108363D01*
Y173197D01*
X107363Y172198D01*
X106363D01*
X105364Y173197D01*
X115361Y172198D02*
X111362D01*
X115361Y176197D01*
Y177196D01*
X114361Y178196D01*
X112362D01*
X111362Y177196D01*
X234895Y46935D02*
Y41937D01*
X235895Y40937D01*
X237894D01*
X238894Y41937D01*
Y46935D01*
X240893Y40937D02*
X242893D01*
X241893D01*
Y46935D01*
X240893Y45935D01*
X83834Y142639D02*
X77836D01*
Y145638D01*
X78835Y146638D01*
X80835D01*
X81834Y145638D01*
Y142639D01*
Y144639D02*
X83834Y146638D01*
X77836Y152636D02*
Y148637D01*
X80835D01*
X79835Y150637D01*
Y151637D01*
X80835Y152636D01*
X82834D01*
X83834Y151637D01*
Y149637D01*
X82834Y148637D01*
X83834Y158387D02*
X77836D01*
Y161387D01*
X78835Y162386D01*
X80835D01*
X81834Y161387D01*
Y158387D01*
Y160387D02*
X83834Y162386D01*
Y167385D02*
X77836D01*
X80835Y164385D01*
Y168384D01*
X81865Y103269D02*
X75867D01*
Y106268D01*
X76867Y107268D01*
X78866D01*
X79866Y106268D01*
Y103269D01*
Y105269D02*
X81865Y107268D01*
X76867Y109267D02*
X75867Y110267D01*
Y112266D01*
X76867Y113266D01*
X77866D01*
X78866Y112266D01*
Y111267D01*
Y112266D01*
X79866Y113266D01*
X80866D01*
X81865Y112266D01*
Y110267D01*
X80866Y109267D01*
X81865Y87521D02*
X75867D01*
Y90520D01*
X76867Y91520D01*
X78866D01*
X79866Y90520D01*
Y87521D01*
Y89521D02*
X81865Y91520D01*
Y97518D02*
Y93519D01*
X77866Y97518D01*
X76867D01*
X75867Y96518D01*
Y94519D01*
X76867Y93519D01*
X49277Y10780D02*
Y16779D01*
X52276D01*
X53276Y15779D01*
Y13780D01*
X52276Y12780D01*
X49277D01*
X51276D02*
X53276Y10780D01*
X55275D02*
X57274D01*
X56275D01*
Y16779D01*
X55275Y15779D01*
X52371Y177488D02*
Y181487D01*
X51372Y182486D01*
X49372D01*
X48372Y181487D01*
Y177488D01*
X49372Y176488D01*
X51372D01*
X50372Y178488D02*
X52371Y176488D01*
X51372D02*
X52371Y177488D01*
X58369Y176488D02*
X54370D01*
X58369Y180487D01*
Y181487D01*
X57370Y182486D01*
X55370D01*
X54370Y181487D01*
X52377Y92501D02*
Y96499D01*
X51377Y97499D01*
X49378D01*
X48378Y96499D01*
Y92501D01*
X49378Y91501D01*
X51377D01*
X50377Y93500D02*
X52377Y91501D01*
X51377D02*
X52377Y92501D01*
X54376Y91501D02*
X56375D01*
X55376D01*
Y97499D01*
X54376Y96499D01*
X131001Y209001D02*
Y214999D01*
X134000D01*
X135000Y213999D01*
Y212000D01*
X134000Y211000D01*
X131001D01*
X136999Y209001D02*
X138999D01*
X137999D01*
Y214999D01*
X136999Y213999D01*
X247096Y213629D02*
Y207631D01*
X251095D01*
X257093D02*
X253094D01*
X257093Y211630D01*
Y212629D01*
X256093Y213629D01*
X254094D01*
X253094Y212629D01*
X274572Y199514D02*
Y193516D01*
X278571D01*
X280571D02*
X282570D01*
X281570D01*
Y199514D01*
X280571Y198514D01*
X148337Y48818D02*
X146338D01*
X147338D01*
Y43820D01*
X146338Y42821D01*
X145338D01*
X144339Y43820D01*
X150337Y42821D02*
X152336D01*
X151336D01*
Y48818D01*
X150337Y47819D01*
X137999Y181498D02*
Y179499D01*
Y180498D01*
X132001D01*
Y181498D01*
Y179499D01*
X136999Y172501D02*
X137999Y173501D01*
Y175500D01*
X136999Y176499D01*
X133001D01*
X132001Y175500D01*
Y173501D01*
X133001Y172501D01*
X132001Y170501D02*
Y168502D01*
Y169502D01*
X137999D01*
X136999Y170501D01*
X71001Y125002D02*
X76999D01*
Y128001D01*
X75999Y129000D01*
X72001D01*
X71001Y128001D01*
Y125002D01*
X76999Y133999D02*
X71001D01*
X74000Y131000D01*
Y134998D01*
X199999Y146998D02*
X194001D01*
Y143999D01*
X195001Y143000D01*
X198999D01*
X199999Y143999D01*
Y146998D01*
X198999Y141000D02*
X199999Y140001D01*
Y138001D01*
X198999Y137002D01*
X198000D01*
X197000Y138001D01*
Y139001D01*
Y138001D01*
X196000Y137002D01*
X195001D01*
X194001Y138001D01*
Y140001D01*
X195001Y141000D01*
X71001Y70002D02*
X76999D01*
Y73001D01*
X75999Y74000D01*
X72001D01*
X71001Y73001D01*
Y70002D01*
X76999Y79998D02*
Y76000D01*
X73000Y79998D01*
X72001D01*
X71001Y78999D01*
Y76999D01*
X72001Y76000D01*
X55182Y32527D02*
Y26528D01*
X58181D01*
X59181Y27528D01*
Y31527D01*
X58181Y32527D01*
X55182D01*
X61181Y26528D02*
X63180D01*
X62180D01*
Y32527D01*
X61181Y31527D01*
X145127Y142000D02*
X144127Y141001D01*
Y139001D01*
X145127Y138002D01*
X149125D01*
X150125Y139001D01*
Y141001D01*
X149125Y142000D01*
X144127Y147998D02*
Y144000D01*
X147126D01*
X146126Y145999D01*
Y146999D01*
X147126Y147998D01*
X149125D01*
X150125Y146999D01*
Y144999D01*
X149125Y144000D01*
X145127Y125000D02*
X144127Y124001D01*
Y122001D01*
X145127Y121002D01*
X149125D01*
X150125Y122001D01*
Y124001D01*
X149125Y125000D01*
X150125Y129999D02*
X144127D01*
X147126Y127000D01*
Y130998D01*
X248000Y166999D02*
X247001Y167999D01*
X245001D01*
X244002Y166999D01*
Y163001D01*
X245001Y162001D01*
X247001D01*
X248000Y163001D01*
X250000Y166999D02*
X250999Y167999D01*
X252999D01*
X253998Y166999D01*
Y166000D01*
X252999Y165000D01*
X251999D01*
X252999D01*
X253998Y164000D01*
Y163001D01*
X252999Y162001D01*
X250999D01*
X250000Y163001D01*
X292000Y44999D02*
X291001Y45999D01*
X289001D01*
X288002Y44999D01*
Y41001D01*
X289001Y40001D01*
X291001D01*
X292000Y41001D01*
X297998Y40001D02*
X294000D01*
X297998Y44000D01*
Y44999D01*
X296999Y45999D01*
X294999D01*
X294000Y44999D01*
X187000Y110999D02*
X186000Y111999D01*
X184001D01*
X183001Y110999D01*
Y107001D01*
X184001Y106001D01*
X186000D01*
X187000Y107001D01*
X188999Y106001D02*
X190999D01*
X189999D01*
Y111999D01*
X188999Y110999D01*
D14*
X140480Y215630D02*
X180480D01*
X140480Y205630D02*
Y215630D01*
X180480Y205630D02*
Y215630D01*
X140480Y205630D02*
X180480D01*
D15*
X212000Y86717D02*
D03*
D16*
X113709Y129921D02*
D03*
Y74803D02*
D03*
D17*
X196976Y165945D02*
D03*
M02*
