%FSTAX23Y23*%
%MOIN*%
%SFA1B1*%

%IPPOS*%
%ADD19C,0.055240*%
%ADD20R,0.086740X0.086740*%
%ADD21C,0.086740*%
%ADD22C,0.118240*%
%ADD23R,0.118240X0.118240*%
%ADD24C,0.063120*%
%ADD25R,0.086740X0.086740*%
%ADD26C,0.067060*%
%ADD27R,0.067060X0.067060*%
%ADD28O,0.058000X0.078000*%
%ADD29C,0.068000*%
%ADD30C,0.070990*%
%ADD31R,0.070990X0.070990*%
%LNpcb1-1*%
%LPD*%
G54D19*
X0299Y0031D03*
Y00172D03*
X02086Y01968D03*
X02342D03*
X0221Y016D03*
Y01462D03*
X0147Y0126D03*
X01706D03*
X0147Y0143D03*
X01706D03*
X01456Y00866D03*
X01653D03*
X00638Y00295D03*
X00738D03*
X028Y0126D03*
X03331D03*
G54D20*
X01889Y01546D03*
G54D21*
X01889Y01957D03*
X00758Y01299D03*
Y00748D03*
G54D22*
X02047Y01059D03*
G54D23*
X02047Y00318D03*
G54D24*
X01114Y01082D03*
X00814D03*
X01114Y01476D03*
X00814D03*
X01114Y01633D03*
X00814D03*
X01114Y00925D03*
X00814D03*
X00538Y00137D03*
X00838D03*
G54D25*
X0117Y01299D03*
Y00748D03*
G54D26*
X0137Y0157D03*
X0147D03*
X0157D03*
X0167D03*
X0137Y0187D03*
X0147D03*
X0157D03*
G54D27*
X0167Y0187D03*
G54D28*
X01374Y02106D03*
X01674D03*
X01574D03*
X01474D03*
G54D29*
X00787Y01988D03*
X00984D03*
X01082Y0048D03*
Y00295D03*
Y0011D03*
X03307Y00137D03*
Y02066D03*
X00236D03*
Y00137D03*
X02322Y00157D03*
X02391Y00314D03*
X0246Y00157D03*
X02529Y00314D03*
X02598Y00157D03*
X01456Y00216D03*
X01653D03*
G54D30*
X0051Y0077D03*
Y0067D03*
Y0162D03*
Y0152D03*
G54D31*
X0051Y0057D03*
Y0142D03*
M02*