%FSTAX23Y23*%
%MOIN*%
%SFA1B1*%

%IPPOS*%
%ADD14C,0.010000*%
%ADD32C,0.070000*%
%ADD33C,0.027000*%
%ADD34C,0.055000*%
%ADD35C,0.047240*%
%ADD36R,0.078740X0.078740*%
%ADD37C,0.078740*%
%ADD38C,0.110240*%
%ADD39R,0.110240X0.110240*%
%ADD40C,0.055120*%
%ADD41R,0.078740X0.078740*%
%ADD42C,0.059060*%
%ADD43R,0.059060X0.059060*%
%ADD44O,0.050000X0.070000*%
%ADD45C,0.060000*%
%ADD46C,0.062990*%
%ADD47R,0.062990X0.062990*%
%LNpcb1-1*%
%LPD*%
G36*
X0027Y0098D02*
X002D01*
Y0027*
X0013*
Y0193*
X0027*
Y0098*
G37*
G36*
X0314Y0219D02*
Y0201D01*
X0255*
Y0219*
X0314*
G37*
G54D14*
X00759Y00749D02*
X00814Y00803D01*
X00689Y00749D02*
X00759D01*
X00758Y00748D02*
X00759Y00749D01*
X0051Y0057D02*
X00689Y00749D01*
X0124Y00637D02*
Y0083D01*
X0162Y0121D02*
Y0182D01*
X01082Y0048D02*
X0124Y00637D01*
Y0083D02*
X0162Y0121D01*
X0051Y0142D02*
X00512Y01417D01*
X0064*
X01674Y01594D02*
X01723Y01546D01*
X01889*
X01256Y01476D02*
X01374Y01594D01*
X01114Y01476D02*
X01256D01*
X0167Y0187D02*
X01757Y01957D01*
X01889*
X0064Y01417D02*
X00758Y01299D01*
X00996Y00295D02*
X01082D01*
X00838Y00137D02*
X00996Y00295D01*
X01374Y01965D02*
X0147Y0187D01*
X01374Y01965D02*
Y02106D01*
X0147Y0187D02*
D01*
X01245Y00905D02*
X0157Y0123D01*
Y01578D02*
X01574Y01583D01*
X0157Y0123D02*
Y01578D01*
X0162Y0182D02*
X0167Y0187D01*
X01474Y01965D02*
X0157Y0187D01*
X01474Y01965D02*
Y02106D01*
X01114Y00905D02*
X01245D01*
X00538Y00137D02*
X00638Y00237D01*
Y00295*
X0171Y0143D02*
D01*
Y01252D02*
Y0143D01*
X0167Y0147D02*
Y0157D01*
Y0147D02*
X01707Y01432D01*
X01574Y01583D02*
Y01594D01*
X00814Y01476D02*
Y01633D01*
Y01062D02*
D01*
Y00925D02*
Y01062D01*
X01114Y00803D02*
Y00905D01*
Y00803D02*
X0117Y00748D01*
Y01299D02*
Y014D01*
X01114Y01456D02*
X0117Y014D01*
X00814Y00803D02*
Y00905D01*
X00758Y014D02*
X00814Y01456D01*
X00758Y01299D02*
Y014D01*
G54D32*
X00433Y00519D02*
Y0062D01*
X00483Y0067*
X00433Y00519D02*
X00473Y0048D01*
X01082*
X00483Y0067D02*
X0051D01*
X004Y0088D02*
X0051Y0077D01*
X004Y0088D02*
Y01221D01*
X00984Y01934D02*
Y01988D01*
X0057Y0152D02*
X00984Y01934D01*
X00473Y0152D02*
X0057D01*
X004Y01446D02*
X00473Y0152D01*
X004Y01221D02*
Y01446D01*
X00441Y0118D02*
X01017D01*
X004Y01221D02*
X00441Y0118D01*
X01017D02*
X01114Y01082D01*
X01377Y00295D02*
X01456Y00216D01*
X01082Y00295D02*
X01377D01*
X0147Y0126D02*
Y0143D01*
Y0157*
Y0124D02*
Y0126D01*
X01312Y01082D02*
X0147Y0124D01*
X01114Y01082D02*
X01312D01*
G54D33*
X02342Y01968D02*
X03248D01*
X0333Y01886*
Y01261D02*
Y01886D01*
X02391Y00314D02*
Y00851D01*
X02803Y01263*
X0333Y01261D02*
X03331Y0126D01*
X0333Y01258D02*
X03331Y0126D01*
X0299Y0031D02*
X03262D01*
X02543D02*
X0299D01*
X03262D02*
X0333Y00377D01*
Y01258*
X02538Y00314D02*
X02543Y0031D01*
X0205Y00314D02*
X02391D01*
X01461Y00216D02*
X0152Y00157D01*
X02322*
X01674Y02106D02*
X01948D01*
X02086Y01968*
X0221Y016D02*
D01*
X02086Y01723D02*
Y01968D01*
Y01723D02*
X0221Y016D01*
X01456Y00216D02*
Y00866D01*
G54D34*
X01653Y00866D02*
D01*
X0051Y0077D02*
Y00772D01*
G54D35*
X0299Y0031D03*
Y00172D03*
X02086Y01968D03*
X02342D03*
X0221Y016D03*
Y01462D03*
X0147Y0126D03*
X01706D03*
X0147Y0143D03*
X01706D03*
X01456Y00866D03*
X01653D03*
X00638Y00295D03*
X00738D03*
X028Y0126D03*
X03331D03*
G54D36*
X01889Y01546D03*
G54D37*
X01889Y01957D03*
X00758Y01299D03*
Y00748D03*
G54D38*
X02047Y01059D03*
G54D39*
X02047Y00318D03*
G54D40*
X01114Y01082D03*
X00814D03*
X01114Y01476D03*
X00814D03*
X01114Y01633D03*
X00814D03*
X01114Y00925D03*
X00814D03*
X00538Y00137D03*
X00838D03*
G54D41*
X0117Y01299D03*
Y00748D03*
G54D42*
X0137Y0157D03*
X0147D03*
X0157D03*
X0167D03*
X0137Y0187D03*
X0147D03*
X0157D03*
G54D43*
X0167Y0187D03*
G54D44*
X01374Y02106D03*
X01674D03*
X01574D03*
X01474D03*
G54D45*
X00787Y01988D03*
X00984D03*
X01082Y0048D03*
Y00295D03*
Y0011D03*
X03307Y00137D03*
Y02066D03*
X00236D03*
Y00137D03*
X02322Y00157D03*
X02391Y00314D03*
X0246Y00157D03*
X02529Y00314D03*
X02598Y00157D03*
X01456Y00216D03*
X01653D03*
G54D46*
X0051Y0077D03*
Y0067D03*
Y0162D03*
Y0152D03*
G54D47*
X0051Y0057D03*
Y0142D03*
M02*