%FSTAX23Y23*%
%MOIN*%
%SFA1B1*%

%IPPOS*%
%ADD10C,0.009840*%
%ADD11C,0.007870*%
%ADD12C,0.023620*%
%ADD13C,0.010000*%
%ADD14C,0.008000*%
%ADD15R,0.220470X0.031500*%
%ADD16R,0.031500X0.110240*%
%ADD17R,0.110240X0.031500*%
%LNpcb1-1*%
%LPD*%
G54D10*
X00642Y01334D02*
X00634Y01339D01*
Y0133*
X00642Y01334*
Y00484D02*
X00634Y00489D01*
Y0048*
X00642Y00484*
X01806Y0187D02*
X01798Y01874D01*
Y01865*
X01806Y0187*
G54D11*
X02471Y01968D02*
X02471Y01978D01*
X0247Y01988*
X02469Y01998*
X02467Y02008*
X02464Y02017*
X02461Y02027*
X02458Y02036*
X02453Y02046*
X02449Y02054*
X02444Y02063*
X02438Y02071*
X02432Y02079*
X02425Y02087*
X02418Y02094*
X02411Y02101*
X02403Y02107*
X02395Y02113*
X02387Y02119*
X02378Y02124*
X02369Y02128*
X0236Y02132*
X02351Y02136*
X02341Y02139*
X02331Y02141*
X02322Y02143*
X02312Y02144*
X02302Y02145*
X02292Y02145*
X02282Y02145*
X02272Y02144*
X02262Y02142*
X02252Y0214*
X02242Y02137*
X02233Y02134*
X02223Y0213*
X02214Y02126*
X02205Y02121*
X02197Y02116*
X02189Y0211*
X02181Y02104*
X02173Y02098*
X02166Y02091*
X02159Y02083*
X02153Y02075*
X02147Y02067*
X02142Y02059*
X02137Y0205*
X02133Y02041*
X02129Y02032*
X02125Y02022*
X02123Y02013*
X0212Y02003*
X02119Y01993*
X02118Y01983*
X02117Y01973*
Y01963*
X02118Y01953*
X02119Y01943*
X0212Y01933*
X02123Y01923*
X02125Y01914*
X02129Y01904*
X02133Y01895*
X02137Y01886*
X02142Y01877*
X02147Y01869*
X02153Y01861*
X02159Y01853*
X02166Y01845*
X02173Y01838*
X02181Y01832*
X02189Y01826*
X02197Y0182*
X02205Y01815*
X02214Y0181*
X02223Y01806*
X02233Y01802*
X02242Y01799*
X02252Y01796*
X02262Y01794*
X02272Y01792*
X02282Y01791*
X02292Y01791*
X02302Y01791*
X02312Y01792*
X02322Y01793*
X02331Y01795*
X02341Y01797*
X02351Y018*
X0236Y01804*
X02369Y01808*
X02378Y01812*
X02387Y01817*
X02395Y01823*
X02403Y01829*
X02411Y01835*
X02418Y01842*
X02425Y01849*
X02432Y01857*
X02438Y01865*
X02444Y01873*
X02449Y01882*
X02453Y0189*
X02458Y019*
X02461Y01909*
X02464Y01919*
X02467Y01928*
X02469Y01938*
X0247Y01948*
X02471Y01958*
X02471Y01968*
X01802Y01745D02*
X01793Y01743D01*
X01785Y01737*
X01779Y01729*
X01777Y0172*
X01779Y0171*
X01785Y01702*
X01793Y01696*
X01802Y01695*
X02447Y01531D02*
X02447Y01541D01*
X02446Y01551*
X02444Y0156*
X02442Y0157*
X02439Y0158*
X02436Y01589*
X02432Y01598*
X02427Y01607*
X02422Y01616*
X02416Y01624*
X0241Y01632*
X02403Y01639*
X02396Y01646*
X02389Y01653*
X02381Y01659*
X02373Y01664*
X02364Y01669*
X02355Y01674*
X02346Y01678*
X02336Y01681*
X02327Y01684*
X02317Y01686*
X02307Y01687*
X02297Y01688*
X02287Y01688*
X02277Y01688*
X02267Y01686*
X02257Y01685*
X02248Y01682*
X02238Y01679*
X02229Y01676*
X0222Y01672*
X02211Y01667*
X02202Y01662*
X02194Y01656*
X02186Y0165*
X02179Y01643*
X02172Y01636*
X02166Y01628*
X0216Y0162*
X02154Y01612*
X0215Y01603*
X02145Y01594*
X02142Y01584*
X02138Y01575*
X02136Y01565*
X02134Y01555*
X02133Y01546*
X02132Y01536*
Y01526*
X02133Y01516*
X02134Y01506*
X02136Y01496*
X02138Y01486*
X02142Y01477*
X02145Y01467*
X0215Y01458*
X02154Y0145*
X0216Y01441*
X02166Y01433*
X02172Y01426*
X02179Y01418*
X02186Y01412*
X02194Y01405*
X02202Y01399*
X02211Y01394*
X0222Y0139*
X02229Y01385*
X02238Y01382*
X02248Y01379*
X02257Y01376*
X02267Y01375*
X02277Y01374*
X02287Y01373*
X02297Y01373*
X02307Y01374*
X02317Y01376*
X02327Y01378*
X02336Y0138*
X02346Y01383*
X02355Y01387*
X02364Y01392*
X02373Y01397*
X02381Y01402*
X02389Y01408*
X02396Y01415*
X02403Y01422*
X0241Y01429*
X02416Y01437*
X02422Y01445*
X02427Y01454*
X02432Y01463*
X02436Y01472*
X02439Y01481*
X02442Y01491*
X02444Y01501*
X02446Y01511*
X02447Y01521*
X02447Y01531*
X03227Y00241D02*
X03227Y00251D01*
X03226Y00261*
X03224Y0027*
X03222Y0028*
X03219Y0029*
X03216Y00299*
X03212Y00308*
X03207Y00317*
X03202Y00326*
X03196Y00334*
X0319Y00342*
X03183Y00349*
X03176Y00356*
X03169Y00363*
X03161Y00369*
X03153Y00374*
X03144Y00379*
X03135Y00384*
X03126Y00388*
X03116Y00391*
X03107Y00394*
X03097Y00396*
X03087Y00397*
X03077Y00398*
X03067Y00398*
X03057Y00398*
X03047Y00396*
X03037Y00395*
X03028Y00392*
X03018Y00389*
X03009Y00386*
X03Y00382*
X02991Y00377*
X02982Y00372*
X02974Y00366*
X02966Y0036*
X02959Y00353*
X02952Y00346*
X02946Y00338*
X0294Y0033*
X02934Y00322*
X0293Y00313*
X02925Y00304*
X02922Y00294*
X02918Y00285*
X02916Y00275*
X02914Y00265*
X02913Y00256*
X02912Y00246*
Y00236*
X02913Y00226*
X02914Y00216*
X02916Y00206*
X02918Y00196*
X02922Y00187*
X02925Y00177*
X0293Y00168*
X02934Y0016*
X0294Y00151*
X02946Y00143*
X02952Y00136*
X02959Y00128*
X02966Y00122*
X02974Y00115*
X02982Y00109*
X02991Y00104*
X03Y001*
X03009Y00095*
X03018Y00092*
X03028Y00089*
X03037Y00086*
X03047Y00085*
X03057Y00084*
X03067Y00083*
X03077Y00083*
X03087Y00084*
X03097Y00086*
X03107Y00088*
X03116Y0009*
X03126Y00093*
X03135Y00097*
X03144Y00102*
X03153Y00107*
X03161Y00112*
X03169Y00118*
X03176Y00125*
X03183Y00132*
X0319Y00139*
X03196Y00147*
X03202Y00155*
X03207Y00164*
X03212Y00173*
X03216Y00182*
X03219Y00191*
X03222Y00201*
X03224Y00211*
X03226Y00221*
X03227Y00231*
X03227Y00241*
X01881Y00866D02*
X0188Y00876D01*
X0188Y00886*
X01879Y00895*
X01877Y00905*
X01876Y00915*
X01873Y00925*
X01871Y00935*
X01868Y00944*
X01864Y00953*
X01861Y00963*
X01857Y00972*
X01852Y00981*
X01847Y00989*
X01842Y00998*
X01837Y01006*
X01831Y01014*
X01825Y01022*
X01818Y0103*
X01811Y01037*
X01804Y01044*
X01797Y01051*
X01789Y01057*
X01781Y01063*
X01773Y01069*
X01765Y01074*
X01756Y0108*
X01747Y01084*
X01738Y01089*
X01729Y01093*
X0172Y01096*
X01711Y011*
X01701Y01103*
X01691Y01105*
X01682Y01107*
X01672Y01109*
X01662Y0111*
X01652Y01111*
X01642Y01112*
X01632Y01112*
X01622Y01111*
X01612Y01111*
X01602Y0111*
X01592Y01108*
X01583Y01106*
X01573Y01104*
X01563Y01101*
X01554Y01098*
X01545Y01095*
X01535Y01091*
X01526Y01087*
X01517Y01082*
X01509Y01077*
X015Y01072*
X01492Y01066*
X01484Y0106*
X01476Y01054*
X01469Y01047*
X01462Y01041*
X01455Y01033*
X01448Y01026*
X01442Y01018*
X01436Y0101*
X0143Y01002*
X01424Y00994*
X01419Y00985*
X01415Y00976*
X01411Y00967*
X01407Y00958*
X01403Y00949*
X014Y00939*
X01397Y0093*
X01395Y0092*
X01393Y0091*
X01391Y009*
X0139Y00891*
X01389Y00881*
X01389Y00871*
Y00861*
X01389Y00851*
X0139Y00841*
X01391Y00831*
X01393Y00821*
X01395Y00811*
X01397Y00802*
X014Y00792*
X01403Y00783*
X01407Y00773*
X01411Y00764*
X01415Y00755*
X01419Y00746*
X01424Y00738*
X0143Y00729*
X01436Y00721*
X01442Y00713*
X01448Y00705*
X01455Y00698*
X01462Y00691*
X01469Y00684*
X01476Y00677*
X01484Y00671*
X01492Y00665*
X015Y0066*
X01509Y00654*
X01517Y00649*
X01526Y00645*
X01535Y00641*
X01545Y00637*
X01554Y00633*
X01563Y0063*
X01573Y00627*
X01583Y00625*
X01592Y00623*
X01602Y00622*
X01612Y00621*
X01622Y0062*
X01632Y0062*
X01642Y0062*
X01652Y0062*
X01662Y00621*
X01672Y00622*
X01682Y00624*
X01691Y00626*
X01701Y00629*
X01711Y00632*
X0172Y00635*
X01729Y00639*
X01738Y00643*
X01747Y00647*
X01756Y00652*
X01765Y00657*
X01773Y00662*
X01781Y00668*
X01789Y00674*
X01797Y00681*
X01804Y00687*
X01811Y00694*
X01818Y00702*
X01825Y00709*
X01831Y00717*
X01837Y00725*
X01842Y00733*
X01847Y00742*
X01852Y00751*
X01857Y0076*
X01861Y00769*
X01864Y00778*
X01868Y00787*
X01871Y00797*
X01873Y00806*
X01876Y00816*
X01877Y00826*
X01879Y00836*
X0188Y00846*
X0188Y00856*
X01881Y00866*
X00944Y01446D02*
Y01476D01*
Y01446D02*
X01144D01*
Y01506*
X00944D02*
X01144D01*
X00944Y01476D02*
Y01506D01*
X01144Y01476D02*
X01153D01*
X00935D02*
X00944D01*
Y01603D02*
Y01633D01*
Y01603D02*
X01144D01*
Y01663*
X00944D02*
X01144D01*
X00944Y01633D02*
Y01663D01*
X01144Y01633D02*
X01153D01*
X00935D02*
X00944D01*
Y01052D02*
Y01082D01*
Y01052D02*
X01144D01*
Y01112*
X00944D02*
X01144D01*
X00944Y01082D02*
Y01112D01*
X01144Y01082D02*
X01153D01*
X00935D02*
X00944D01*
Y00895D02*
Y00925D01*
Y00895D02*
X01144D01*
Y00955*
X00944D02*
X01144D01*
X00944Y00925D02*
Y00955D01*
X01144Y00925D02*
X01153D01*
X00935D02*
X00944D01*
X00868Y00137D02*
Y00167D01*
X00668D02*
X00868D01*
X00668Y00107D02*
Y00167D01*
Y00107D02*
X00868D01*
Y00137*
X00659D02*
X00668D01*
X00868D02*
X00877D01*
X00477Y0173D02*
X00662D01*
X00477Y01309D02*
X00662D01*
Y0173*
X00477Y01309D02*
Y0173D01*
X00497Y01309D02*
Y0173D01*
X00477Y0088D02*
X00662D01*
X00477Y00459D02*
X00662D01*
Y0088*
X00477Y00459D02*
Y0088D01*
X00497Y00459D02*
Y0088D01*
X01397Y01824D02*
X01802D01*
X01397Y01615D02*
X01802D01*
Y01745D02*
Y01824D01*
Y01615D02*
Y01695D01*
X01397Y01615D02*
Y01824D01*
X02009Y00501D02*
X0223D01*
X02009D02*
Y00878D01*
X0223Y00501D02*
Y00878D01*
X0094Y01244D02*
Y01354D01*
X01148*
X0094Y01244D02*
X01148D01*
X01914Y01856D02*
X02024D01*
Y01647D02*
Y01856D01*
X01914Y01647D02*
Y01856D01*
X0094Y00692D02*
Y00803D01*
X01148*
X0094Y00692D02*
X01148D01*
X00668Y00345D02*
X00868D01*
X00668Y00245D02*
Y00345D01*
Y00245D02*
X00868D01*
Y00345*
X01597Y0143D02*
X01698D01*
X01637D02*
X01738D01*
X01698Y01361D02*
Y0143D01*
X01637Y01361D02*
X01698D01*
X01637D02*
Y01498D01*
X01698*
Y0143D02*
Y01498D01*
X01597Y0126D02*
X01698D01*
X01637D02*
X01738D01*
X01698Y01191D02*
Y0126D01*
X01637Y01191D02*
X01698D01*
X01637D02*
Y01328D01*
X01698*
Y0126D02*
Y01328D01*
X02269Y01727D02*
X02309D01*
X0229Y01707D02*
Y01747D01*
X0307Y00417D02*
Y00457D01*
X03049Y00437D02*
X03089D01*
X0133Y00866D02*
X0137D01*
X01349Y00846D02*
Y00886D01*
G54D12*
X01775Y01784D02*
X0177Y01794D01*
X0176Y01796*
X01752Y0179*
Y01779*
X0176Y01773*
X0177Y01775*
X01775Y01784*
G54D13*
X02343Y00374D02*
X02737D01*
Y00098D02*
Y00374D01*
X02343Y00098D02*
X02737D01*
X02343D02*
Y00374D01*
X01292Y00043D02*
Y00543D01*
X01032D02*
X01292D01*
X01032Y00078D02*
Y00543D01*
X01068Y00043D02*
X01292D01*
X01032Y00078D02*
X01068Y00043D01*
X0274Y0062D02*
Y01899D01*
X0339Y0062D02*
Y01899D01*
X0274D02*
X0339D01*
X0274Y0062D02*
X0339D01*
X00768Y01811D02*
Y02165D01*
X01162*
X00768Y01811D02*
X01123D01*
X01162Y0185*
Y02165*
X01831Y00039D02*
Y00393D01*
X01438Y00039D02*
X01831D01*
X01477Y00393D02*
X01831D01*
X01438Y00354D02*
X01477Y00393D01*
X01438Y00039D02*
Y00354D01*
X02329Y00869D02*
X0227D01*
Y00839*
X0228Y0083*
X02319*
X02329Y00839*
Y00869*
Y0077D02*
Y0081D01*
X023*
X0231Y0079*
Y0078*
X023Y0077*
X0228*
X0227Y0078*
Y008*
X0228Y0081*
X01077Y00627D02*
X01067Y00637D01*
X01047*
X01037Y00627*
Y00617*
X01047Y00607*
X01067*
X01077Y00597*
Y00587*
X01067Y00577*
X01047*
X01037Y00587*
X01097Y00577D02*
X01117D01*
X01107*
Y00637*
X01097Y00627*
X01093Y01781D02*
X01073D01*
X01083*
Y01731*
X01073Y01721*
X01063*
X01053Y01731*
X01153Y01721D02*
X01113D01*
X01153Y01761*
Y01771*
X01143Y01781*
X01123*
X01113Y01771*
X02348Y00469D02*
Y00419D01*
X02358Y00409*
X02378*
X02388Y00419*
Y00469*
X02408Y00409D02*
X02428D01*
X02418*
Y00469*
X02408Y00459*
X00838Y01426D02*
X00778D01*
Y01456*
X00788Y01466*
X00808*
X00818Y01456*
Y01426*
Y01446D02*
X00838Y01466D01*
X00778Y01526D02*
Y01486D01*
X00808*
X00798Y01506*
Y01516*
X00808Y01526*
X00828*
X00838Y01516*
Y01496*
X00828Y01486*
X00838Y01583D02*
X00778D01*
Y01613*
X00788Y01623*
X00808*
X00818Y01613*
Y01583*
Y01603D02*
X00838Y01623D01*
Y01673D02*
X00778D01*
X00808Y01643*
Y01683*
X00818Y01032D02*
X00758D01*
Y01062*
X00768Y01072*
X00788*
X00798Y01062*
Y01032*
Y01052D02*
X00818Y01072D01*
X00768Y01092D02*
X00758Y01102D01*
Y01122*
X00768Y01132*
X00778*
X00788Y01122*
Y01112*
Y01122*
X00798Y01132*
X00808*
X00818Y01122*
Y01102*
X00808Y01092*
X00818Y00875D02*
X00758D01*
Y00905*
X00768Y00915*
X00788*
X00798Y00905*
Y00875*
Y00895D02*
X00818Y00915D01*
Y00975D02*
Y00935D01*
X00778Y00975*
X00768*
X00758Y00965*
Y00945*
X00768Y00935*
X00492Y00107D02*
Y00167D01*
X00522*
X00532Y00157*
Y00137*
X00522Y00127*
X00492*
X00512D02*
X00532Y00107D01*
X00552D02*
X00572D01*
X00562*
Y00167*
X00552Y00157*
X00523Y01774D02*
Y01814D01*
X00513Y01824*
X00493*
X00483Y01814*
Y01774*
X00493Y01764*
X00513*
X00503Y01784D02*
X00523Y01764D01*
X00513D02*
X00523Y01774D01*
X00583Y01764D02*
X00543D01*
X00583Y01804*
Y01814*
X00573Y01824*
X00553*
X00543Y01814*
X00523Y00925D02*
Y00964D01*
X00513Y00974*
X00493*
X00483Y00964*
Y00925*
X00493Y00915*
X00513*
X00503Y00935D02*
X00523Y00915D01*
X00513D02*
X00523Y00925D01*
X00543Y00915D02*
X00563D01*
X00553*
Y00974*
X00543Y00964*
X0131Y0209D02*
Y02149D01*
X0134*
X0135Y02139*
Y0212*
X0134Y0211*
X0131*
X01369Y0209D02*
X01389D01*
X01379*
Y02149*
X01369Y02139*
X0247Y02136D02*
Y02076D01*
X0251*
X0257D02*
X0253D01*
X0257Y02116*
Y02126*
X0256Y02136*
X0254*
X0253Y02126*
X02745Y01995D02*
Y01935D01*
X02785*
X02805D02*
X02825D01*
X02815*
Y01995*
X02805Y01985*
X01483Y00488D02*
X01463D01*
X01473*
Y00438*
X01463Y00428*
X01453*
X01443Y00438*
X01503Y00428D02*
X01523D01*
X01513*
Y00488*
X01503Y00478*
X01379Y01814D02*
Y01794D01*
Y01804*
X0132*
Y01814*
Y01794*
X01369Y01725D02*
X01379Y01735D01*
Y01755*
X01369Y01764*
X0133*
X0132Y01755*
Y01735*
X0133Y01725*
X0132Y01705D02*
Y01685D01*
Y01695*
X01379*
X01369Y01705*
X0071Y0125D02*
X00769D01*
Y0128*
X00759Y0129*
X0072*
X0071Y0128*
Y0125*
X00769Y01339D02*
X0071D01*
X0074Y0131*
Y01349*
X01999Y01469D02*
X0194D01*
Y01439*
X0195Y0143*
X01989*
X01999Y01439*
Y01469*
X01989Y0141D02*
X01999Y014D01*
Y0138*
X01989Y0137*
X0198*
X0197Y0138*
Y0139*
Y0138*
X0196Y0137*
X0195*
X0194Y0138*
Y014*
X0195Y0141*
X0071Y007D02*
X00769D01*
Y0073*
X00759Y0074*
X0072*
X0071Y0073*
Y007*
X00769Y00799D02*
Y0076D01*
X0073Y00799*
X0072*
X0071Y00789*
Y00769*
X0072Y0076*
X00551Y00325D02*
Y00265D01*
X00581*
X00591Y00275*
Y00315*
X00581Y00325*
X00551*
X00611Y00265D02*
X00631D01*
X00621*
Y00325*
X00611Y00315*
X01451Y0142D02*
X01441Y0141D01*
Y0139*
X01451Y0138*
X01491*
X01501Y0139*
Y0141*
X01491Y0142*
X01441Y01479D02*
Y0144D01*
X01471*
X01461Y01459*
Y01469*
X01471Y01479*
X01491*
X01501Y01469*
Y01449*
X01491Y0144*
X01451Y0125D02*
X01441Y0124D01*
Y0122*
X01451Y0121*
X01491*
X01501Y0122*
Y0124*
X01491Y0125*
X01501Y01299D02*
X01441D01*
X01471Y0127*
Y01309*
X0248Y01669D02*
X0247Y01679D01*
X0245*
X0244Y01669*
Y0163*
X0245Y0162*
X0247*
X0248Y0163*
X025Y01669D02*
X02509Y01679D01*
X02529*
X02539Y01669*
Y0166*
X02529Y0165*
X02519*
X02529*
X02539Y0164*
Y0163*
X02529Y0162*
X02509*
X025Y0163*
X0292Y00449D02*
X0291Y00459D01*
X0289*
X0288Y00449*
Y0041*
X0289Y004*
X0291*
X0292Y0041*
X02979Y004D02*
X0294D01*
X02979Y0044*
Y00449*
X02969Y00459*
X02949*
X0294Y00449*
X0187Y01109D02*
X0186Y01119D01*
X0184*
X0183Y01109*
Y0107*
X0184Y0106*
X0186*
X0187Y0107*
X01889Y0106D02*
X01909D01*
X01899*
Y01119*
X01889Y01109*
G54D14*
X01404Y02156D02*
X01804D01*
X01404Y02056D02*
Y02156D01*
X01804Y02056D02*
Y02156D01*
X01404Y02056D02*
X01804D01*
G54D15*
X0212Y00867D03*
G54D16*
X01137Y01299D03*
Y00748D03*
G54D17*
X01969Y01659D03*
M02*