%FSTAX23Y23*%
%MOIN*%
%SFA1B1*%

%IPPOS*%
%ADD9500C,0.023620*%
%ADD9501C,0.027560*%
%ADD9502C,0.031500*%
%ADD9503C,0.033460*%
%ADD9504C,0.035040*%
%ADD9505C,0.035430*%
%ADD9506C,0.039370*%
%ADD9507C,0.040000*%
%ADD9508C,0.045280*%
%ADD9509C,0.047240*%
%ADD9510C,0.053150*%
%ADD9511C,0.066930*%
%ADD9512C,0.106300*%
%LNpcb1-1*%
%LPD*%
G54D9500*
X0147Y0126D03*
Y0143D03*
X01706D03*
Y0126D03*
G54D9501*
X00638Y00295D03*
X00738D03*
X01456Y00866D03*
X01653D03*
X0221Y01462D03*
X0299Y0031D03*
Y00172D03*
X0221Y016D03*
G54D9502*
X01082Y0011D03*
Y00295D03*
Y0048D03*
X01456Y00216D03*
X01653D03*
X00984Y01988D03*
X00787D03*
G54D9503*
X00538Y00137D03*
X00838D03*
X00814Y00925D03*
Y01082D03*
X01114D03*
Y00925D03*
Y01476D03*
X00814D03*
Y01633D03*
X01114D03*
G54D9504*
X02322Y00157D03*
X0246D03*
X02598D03*
X02529Y00314D03*
X02391D03*
G54D9505*
X0157Y0157D03*
X0167D03*
Y0187D03*
X0157D03*
X0147D03*
X0137D03*
Y0157D03*
X0147D03*
G54D9506*
X0051Y0057D03*
Y0067D03*
Y0077D03*
Y0142D03*
Y0152D03*
Y0162D03*
G54D9507*
X01574Y02106D03*
X01674D03*
X01474D03*
X01374D03*
G54D9508*
X02086Y01968D03*
X02342D03*
G54D9509*
X00758Y00748D03*
X0117D03*
Y01299D03*
X00758D03*
X01889Y01546D03*
Y01957D03*
G54D9510*
X028Y0126D03*
X03331D03*
G54D9511*
X02047Y00318D03*
Y01059D03*
G54D9512*
X00236Y00137D03*
X03307D03*
Y02066D03*
X00236D03*
M02*