%FSTAX23Y23*%
%MOIN*%
%SFA1B1*%

%IPPOS*%
%ADD13C,0.010000*%
%ADD35C,0.027000*%
%ADD36C,0.070000*%
%ADD37C,0.055000*%
%ADD38C,0.060000*%
%ADD39C,0.078740*%
%ADD40C,0.055120*%
%ADD41C,0.062990*%
%ADD42R,0.062990X0.062990*%
%ADD43O,0.050000X0.070000*%
%ADD44C,0.064960*%
%ADD45C,0.072840*%
%ADD46C,0.066930*%
%ADD47R,0.059060X0.059060*%
%ADD48C,0.059060*%
%ADD49R,0.110240X0.110240*%
%ADD50C,0.110240*%
%ADD51R,0.078740X0.078740*%
%ADD52R,0.078740X0.078740*%
%ADD53C,0.047240*%
%LNpcb1-1*%
%LPD*%
G36*
X0027Y0098D02*
X002D01*
Y0027*
X0013*
Y0193*
X0027*
Y0098*
G37*
G36*
X032Y0217D02*
Y0199D01*
X0261*
Y0217*
X032*
G37*
G54D13*
X01194Y00925D02*
X01199Y0092D01*
X0134D02*
X0165Y0123D01*
X01199Y0092D02*
X0134D01*
X0165Y0157D02*
Y01578D01*
Y0123D02*
Y0157D01*
X01076Y00295D02*
X01162D01*
Y0048D02*
X0132Y00637D01*
Y0083*
X00839Y00749D02*
X00894Y00803D01*
X00769Y00749D02*
X00839D01*
X00838Y00748D02*
X00839Y00749D01*
X0059Y0057D02*
X00769Y00749D01*
X017Y0121D02*
Y0182D01*
X0132Y0083D02*
X017Y0121D01*
X0059Y0142D02*
X00592Y01417D01*
X0072*
X01754Y01594D02*
X01803Y01546D01*
X01969*
X01336Y01476D02*
X01454Y01594D01*
X01194Y01476D02*
X01336D01*
X0175Y0187D02*
X01837Y01957D01*
X01969*
X0072Y01417D02*
X00838Y01299D01*
X00918Y00137D02*
X01076Y00295D01*
X01454Y01965D02*
X0155Y0187D01*
X01454Y01965D02*
Y02106D01*
X0155Y0187D02*
D01*
X0165Y01578D02*
X01654Y01583D01*
X017Y0182D02*
X0175Y0187D01*
X01554Y01965D02*
X0165Y0187D01*
X01554Y01965D02*
Y02106D01*
X00618Y00137D02*
X00718Y00237D01*
Y00295*
X0179Y0143D02*
D01*
Y01252D02*
Y0143D01*
X0175Y0147D02*
Y0157D01*
Y0147D02*
X01787Y01432D01*
X01654Y01583D02*
Y01594D01*
X00894Y01476D02*
Y01633D01*
Y01062D02*
D01*
Y00925D02*
Y01062D01*
X01194Y00803D02*
Y00905D01*
Y00803D02*
X0125Y00748D01*
Y01299D02*
Y014D01*
X01194Y01456D02*
X0125Y014D01*
X00894Y00803D02*
Y00905D01*
X00838Y014D02*
X00894Y01456D01*
X00838Y01299D02*
Y014D01*
G54D35*
X02422Y01968D02*
X02531Y0186D01*
X0333Y01261D02*
Y01844D01*
X03314Y0186D02*
X0333Y01844D01*
X02531Y0186D02*
X03314D01*
X0267Y0126D02*
X028D01*
X0307Y0031D02*
X0328D01*
X02623D02*
X0307D01*
X0328D02*
X0333Y0036D01*
Y01258*
X01541Y00216D02*
X016Y00157D01*
X01536Y00216D02*
Y00866D01*
X016Y00157D02*
X02402D01*
X0247Y00316D02*
X02471Y00314D01*
X02469Y00317D02*
X0247Y00316D01*
X0212Y00319D02*
X02122Y00317D01*
X02469*
X0212Y00319D02*
X0212Y0032D01*
X0247Y00316D02*
Y0106D01*
X0267Y0126*
X0333Y01261D02*
X03331Y0126D01*
X0333Y01258D02*
X03331Y0126D01*
X01754Y02106D02*
X02028D01*
X02166Y01968*
X0229Y016D02*
D01*
X02166Y01723D02*
Y01968D01*
Y01723D02*
X0229Y016D01*
G54D36*
X01457Y00295D02*
X01536Y00216D01*
X01162Y00295D02*
X01457D01*
X00553Y0048D02*
X01162D01*
X00513Y00519D02*
Y0062D01*
X00563Y0067*
X00513Y00519D02*
X00553Y0048D01*
X00563Y0067D02*
X0059D01*
X0048Y0088D02*
X0059Y0077D01*
X0048Y0088D02*
Y01221D01*
X01064Y01934D02*
Y01988D01*
X0065Y0152D02*
X01064Y01934D01*
X00553Y0152D02*
X0065D01*
X0048Y01446D02*
X00553Y0152D01*
X0048Y01221D02*
Y01446D01*
X00521Y0118D02*
X01097D01*
X0048Y01221D02*
X00521Y0118D01*
X01097D02*
X01194Y01082D01*
X0155Y0126D02*
Y0143D01*
Y0157*
Y0124D02*
Y0126D01*
X01392Y01082D02*
X0155Y0124D01*
X01194Y01082D02*
X01392D01*
G54D37*
X01733Y00866D02*
D01*
X0059Y0077D02*
Y00772D01*
G54D38*
X02678Y00157D03*
X02609Y00314D03*
X0254Y00157D03*
X02471Y00314D03*
X02402Y00157D03*
X03307Y00137D03*
Y02066D03*
X00236D03*
Y00137D03*
G54D39*
X01162Y0048D03*
Y00295D03*
Y0011D03*
X00838Y01299D03*
X01969Y01957D03*
X00838Y00748D03*
G54D40*
X00894Y01476D03*
X01194D03*
X00894Y01633D03*
X01194D03*
X00894Y01082D03*
X01194D03*
X00894Y00925D03*
X01194D03*
X00918Y00137D03*
X00618D03*
G54D41*
X0059Y0162D03*
Y0152D03*
Y0077D03*
Y0067D03*
G54D42*
X0059Y0142D03*
Y0057D03*
G54D43*
X01554Y02106D03*
X01654D03*
X01754D03*
X01454D03*
G54D44*
X02422Y01968D03*
X02166D03*
G54D45*
X028Y0126D03*
X03331D03*
G54D46*
X00867Y01988D03*
X01064D03*
X01733Y00216D03*
X01536D03*
G54D47*
X0175Y0187D03*
G54D48*
X0165Y0187D03*
X0155D03*
X0145D03*
X0175Y0157D03*
X0165D03*
X0155D03*
X0145D03*
G54D49*
X0212Y0106D03*
G54D50*
X0212Y00319D03*
G54D51*
X0125Y01299D03*
Y00748D03*
G54D52*
X01969Y01546D03*
G54D53*
X00718Y00295D03*
X00818D03*
X01786Y0143D03*
X0155D03*
X01786Y0126D03*
X0155D03*
X0229Y01462D03*
Y016D03*
X0307Y0031D03*
Y00172D03*
X01536Y00866D03*
X01733D03*
M02*