%FSTAX23Y23*%
%MOIN*%
%SFA1B1*%

%IPPOS*%
%ADD19C,0.068000*%
%ADD20C,0.086740*%
%ADD21C,0.063120*%
%ADD22C,0.070990*%
%ADD23R,0.070990X0.070990*%
%ADD24O,0.058000X0.078000*%
%ADD25C,0.072960*%
%ADD26C,0.080830*%
%ADD27C,0.074930*%
%ADD28R,0.067060X0.067060*%
%ADD29C,0.067060*%
%ADD30R,0.118240X0.118240*%
%ADD31C,0.118240*%
%ADD32R,0.086740X0.086740*%
%ADD33R,0.086740X0.086740*%
%ADD34C,0.055240*%
%LNpcb1-1*%
%LPD*%
G54D19*
X02678Y00157D03*
X02609Y00314D03*
X0254Y00157D03*
X02471Y00314D03*
X02402Y00157D03*
X03307Y00137D03*
Y02066D03*
X00236D03*
Y00137D03*
G54D20*
X01162Y0048D03*
Y00295D03*
Y0011D03*
X00838Y01299D03*
X01969Y01957D03*
X00838Y00748D03*
G54D21*
X00894Y01476D03*
X01194D03*
X00894Y01633D03*
X01194D03*
X00894Y01082D03*
X01194D03*
X00894Y00925D03*
X01194D03*
X00918Y00137D03*
X00618D03*
G54D22*
X0059Y0162D03*
Y0152D03*
Y0077D03*
Y0067D03*
G54D23*
X0059Y0142D03*
Y0057D03*
G54D24*
X01554Y02106D03*
X01654D03*
X01754D03*
X01454D03*
G54D25*
X02422Y01968D03*
X02166D03*
G54D26*
X028Y0126D03*
X03331D03*
G54D27*
X00867Y01988D03*
X01064D03*
X01733Y00216D03*
X01536D03*
G54D28*
X0175Y0187D03*
G54D29*
X0165Y0187D03*
X0155D03*
X0145D03*
X0175Y0157D03*
X0165D03*
X0155D03*
X0145D03*
G54D30*
X0212Y0106D03*
G54D31*
X0212Y00319D03*
G54D32*
X0125Y01299D03*
Y00748D03*
G54D33*
X01969Y01546D03*
G54D34*
X00718Y00295D03*
X00818D03*
X01786Y0143D03*
X0155D03*
X01786Y0126D03*
X0155D03*
X0229Y01462D03*
Y016D03*
X0307Y0031D03*
Y00172D03*
X01536Y00866D03*
X01733D03*
M02*